<mxfile host="app.diagrams.net" agent="Mozilla/5.0 (Windows NT 10.0; Win64; x64) AppleWebKit/537.36 (KHTML, like Gecko) Chrome/123.0.0.0 Safari/537.36" version="26.2.4">
  <diagram name="Página-1" id="08tB7218NpRL2Nvatnnr">
    <mxGraphModel dx="874" dy="473" grid="1" gridSize="10" guides="1" tooltips="1" connect="1" arrows="1" fold="1" page="1" pageScale="1" pageWidth="827" pageHeight="1169" math="0" shadow="0">
      <root>
        <mxCell id="0" />
        <mxCell id="1" parent="0" />
        <mxCell id="5GAmD2_G5ovodKzPIwnK-2" value="" style="swimlane;startSize=0;" vertex="1" parent="1">
          <mxGeometry x="240" y="290" width="350" height="700" as="geometry" />
        </mxCell>
        <mxCell id="5GAmD2_G5ovodKzPIwnK-9" value="" style="ellipse;whiteSpace=wrap;html=1;" vertex="1" parent="5GAmD2_G5ovodKzPIwnK-2">
          <mxGeometry x="20" y="30" width="120" height="80" as="geometry" />
        </mxCell>
        <mxCell id="5GAmD2_G5ovodKzPIwnK-10" value="" style="ellipse;whiteSpace=wrap;html=1;" vertex="1" parent="5GAmD2_G5ovodKzPIwnK-2">
          <mxGeometry x="20" y="150" width="120" height="80" as="geometry" />
        </mxCell>
        <mxCell id="5GAmD2_G5ovodKzPIwnK-11" value="" style="ellipse;whiteSpace=wrap;html=1;" vertex="1" parent="5GAmD2_G5ovodKzPIwnK-2">
          <mxGeometry x="20" y="270" width="120" height="80" as="geometry" />
        </mxCell>
        <mxCell id="5GAmD2_G5ovodKzPIwnK-12" value="" style="ellipse;whiteSpace=wrap;html=1;" vertex="1" parent="5GAmD2_G5ovodKzPIwnK-2">
          <mxGeometry x="20" y="390" width="120" height="80" as="geometry" />
        </mxCell>
        <mxCell id="5GAmD2_G5ovodKzPIwnK-13" value="" style="ellipse;whiteSpace=wrap;html=1;" vertex="1" parent="5GAmD2_G5ovodKzPIwnK-2">
          <mxGeometry x="20" y="500" width="120" height="80" as="geometry" />
        </mxCell>
        <mxCell id="5GAmD2_G5ovodKzPIwnK-14" value="" style="ellipse;whiteSpace=wrap;html=1;" vertex="1" parent="5GAmD2_G5ovodKzPIwnK-2">
          <mxGeometry x="20" y="600" width="120" height="80" as="geometry" />
        </mxCell>
        <mxCell id="5GAmD2_G5ovodKzPIwnK-15" value="" style="ellipse;whiteSpace=wrap;html=1;" vertex="1" parent="5GAmD2_G5ovodKzPIwnK-2">
          <mxGeometry x="190" y="270" width="120" height="80" as="geometry" />
        </mxCell>
        <mxCell id="5GAmD2_G5ovodKzPIwnK-3" value="Cliente" style="shape=umlActor;verticalLabelPosition=bottom;verticalAlign=top;html=1;" vertex="1" parent="1">
          <mxGeometry x="100" y="350" width="30" height="60" as="geometry" />
        </mxCell>
        <mxCell id="5GAmD2_G5ovodKzPIwnK-4" value="Juízo" style="shape=umlActor;verticalLabelPosition=bottom;verticalAlign=top;html=1;" vertex="1" parent="1">
          <mxGeometry x="30" y="480" width="30" height="60" as="geometry" />
        </mxCell>
        <mxCell id="5GAmD2_G5ovodKzPIwnK-6" value="Funcionário" style="shape=umlActor;verticalLabelPosition=bottom;verticalAlign=top;html=1;" vertex="1" parent="1">
          <mxGeometry x="690" y="360" width="30" height="60" as="geometry" />
        </mxCell>
        <mxCell id="5GAmD2_G5ovodKzPIwnK-7" value="Chefe" style="shape=umlActor;verticalLabelPosition=bottom;verticalAlign=top;html=1;" vertex="1" parent="1">
          <mxGeometry x="630" y="480" width="30" height="60" as="geometry" />
        </mxCell>
        <mxCell id="5GAmD2_G5ovodKzPIwnK-8" value="Secretário" style="shape=umlActor;verticalLabelPosition=bottom;verticalAlign=top;html=1;" vertex="1" parent="1">
          <mxGeometry x="760" y="480" width="30" height="60" as="geometry" />
        </mxCell>
        <mxCell id="5GAmD2_G5ovodKzPIwnK-18" value="Físico" style="shape=umlActor;verticalLabelPosition=bottom;verticalAlign=top;html=1;" vertex="1" parent="1">
          <mxGeometry x="160" y="480" width="30" height="60" as="geometry" />
        </mxCell>
      </root>
    </mxGraphModel>
  </diagram>
</mxfile>
